HIERARCHY
ROOT Hips
{
	OFFSET 0.000000 0.000000 0.000000
	CHANNELS 6 Xposition Yposition Zposition Zrotation Yrotation Xrotation 
	JOINT LeftUpLeg_virtual
	{
		OFFSET 0.000000 0.000000 0.000000
		CHANNELS 3 Zrotation Yrotation Xrotation
		JOINT LeftUpLeg
		{
			OFFSET 8.479694 -4.795517 -0.379053
			CHANNELS 3 Zrotation Yrotation Xrotation
			JOINT LeftLeg
			{
				OFFSET 0.485052 -32.551468 0.112863
				CHANNELS 3 Zrotation Yrotation Xrotation
				JOINT LeftFoot
				{
					OFFSET 0.438033 -32.635670 -3.012641
					CHANNELS 3 Zrotation Yrotation Xrotation
					JOINT LeftToeBase
					{
						OFFSET 0.970169 -13.225353 11.864223
						CHANNELS 3 Zrotation Yrotation Xrotation
						End Site
						{
							OFFSET 0.000000 0.000000 0.000000
						}
					}
				}
			}
		}
	}
	JOINT RightUpLeg_virtual
	{
		OFFSET 0.000000 0.000000 0.000000
		CHANNELS 3 Zrotation Yrotation Xrotation
		JOINT RightUpLeg
		{
			OFFSET -8.479694 -4.795517 -0.379053
			CHANNELS 3 Zrotation Yrotation Xrotation
			JOINT RightLeg
			{
				OFFSET -0.484100 -32.551483 0.112903
				CHANNELS 3 Zrotation Yrotation Xrotation
				JOINT RightFoot
				{
					OFFSET -0.438985 -32.635651 -3.012681
					CHANNELS 3 Zrotation Yrotation Xrotation
					JOINT RightToeBase
					{
						OFFSET -0.970169 -13.225354 11.864223
						CHANNELS 3 Zrotation Yrotation Xrotation
						End Site
						{
							OFFSET 0.000000 0.000000 0.000000
						}
					}
				}
			}
		}
	}
	JOINT Spine_virtual
	{
		OFFSET 0.000000 0.000000 0.000000
		CHANNELS 3 Zrotation Yrotation Xrotation
		JOINT Spine
		{
			OFFSET 0.000000 7.722015 1.166203
			CHANNELS 3 Zrotation Yrotation Xrotation
			JOINT Spine1
			{
				OFFSET 0.000000 12.024086 0.248766
				CHANNELS 3 Zrotation Yrotation Xrotation
				JOINT Spine2
				{
					OFFSET -0.000000 11.503036 -0.491240
					CHANNELS 3 Zrotation Yrotation Xrotation
					JOINT Neck_virtual
					{
						OFFSET 0.000000 0.000000 0.000000
						CHANNELS 3 Zrotation Yrotation Xrotation
						JOINT Neck
						{
							OFFSET 0.000000 18.430687 -3.123054
							CHANNELS 3 Zrotation Yrotation Xrotation
							JOINT Head
							{
								OFFSET -0.000000 9.051071 1.034021
								CHANNELS 3 Zrotation Yrotation Xrotation
								End Site
								{
									OFFSET 0.000000 0.000000 0.000000
								}
							}
						}
					}
					JOINT LeftShoulder_virtual
					{
						OFFSET 0.000000 0.000000 0.000000
						CHANNELS 3 Zrotation Yrotation Xrotation
						JOINT LeftShoulder
						{
							OFFSET 6.197824 13.665230 -4.064723
							CHANNELS 3 Zrotation Yrotation Xrotation
							JOINT LeftArm
							{
								OFFSET 7.778132 -0.187073 -1.709282
								CHANNELS 3 Zrotation Yrotation Xrotation
								JOINT LeftForeArm
								{
									OFFSET 21.954697 0.000000 -2.041093
									CHANNELS 3 Zrotation Yrotation Xrotation
									JOINT LeftHand
									{
										OFFSET 22.992908 0.000000 -0.870901
										CHANNELS 3 Zrotation Yrotation Xrotation
										End Site
										{
											OFFSET 0.000000 0.000000 0.000000
										}
									}
								}
							}
						}
					}
					JOINT RightShoulder_virtual
					{
						OFFSET 0.000000 0.000000 0.000000
						CHANNELS 3 Zrotation Yrotation Xrotation
						JOINT RightShoulder
						{
							OFFSET -6.197824 13.665230 -4.064723
							CHANNELS 3 Zrotation Yrotation Xrotation
							JOINT RightArm
							{
								OFFSET -7.778132 -0.187073 -1.709282
								CHANNELS 3 Zrotation Yrotation Xrotation
								JOINT RightForeArm
								{
									OFFSET -21.954697 0.000000 -2.041093
									CHANNELS 3 Zrotation Yrotation Xrotation
									JOINT RightHand
									{
										OFFSET -22.992908 0.000000 -0.870901
										CHANNELS 3 Zrotation Yrotation Xrotation
										End Site
										{
											OFFSET 0.000000 0.000000 0.000000
										}
									}
								}
							}
						}
					}
				}
			}
		}
	}
}
MOTION
Frames: 8
Frame Time: 0.033333
-5.505370 31.543079 43.039440 179.751468 2.291368 -179.797230 17.255110 -8.403351 -34.605444 -2.482823 6.046387 -49.343650 11.634296 6.363372 31.580442 4.465886 -10.609066 -9.135550 0.000000 0.000000 0.000000 4.982850 1.610024 -29.096705 15.383451 -3.819514 -58.064449 -1.645876 -2.294429 59.350123 -1.036461 13.369635 -5.289714 0.000000 0.000000 0.000000 3.551190 -0.045747 -33.468214 -3.185491 -1.605105 -5.953416 -1.409002 0.009231 13.348654 -0.032313 -0.025359 0.037601 -2.513342 0.648879 18.790732 1.092316 -5.883622 24.606050 0.000000 0.000000 0.000000 1.066446 0.764045 13.121947 14.983326 4.758405 4.565207 -106.087099 38.331606 -1.269809 83.820887 -88.155489 -61.379864 0.000000 0.000000 0.000000 -4.296760 2.516322 12.362823 8.959672 -1.031690 9.092654 83.081328 -22.073409 1.937769 -128.510597 76.302516 -133.757644 0.000000 0.000000 0.000000 
-5.607149 31.554647 43.184563 179.584689 2.781909 -179.732057 17.636132 -8.810427 -34.640097 -1.948360 6.311245 -49.392185 11.593747 5.903522 31.714658 4.143654 -10.427931 -8.418154 0.000000 0.000000 0.000000 5.083639 1.368428 -28.919147 15.612235 -3.617517 -58.393842 -1.637362 -2.602747 59.295345 -1.009137 13.466349 -5.005690 0.000000 0.000000 0.000000 3.588205 -0.958326 -33.526564 -3.510306 -1.187179 -5.462006 -1.443810 0.222905 13.327602 0.032226 0.121276 0.039952 -2.648547 0.485652 18.666518 0.430224 -6.012780 23.677370 0.000000 0.000000 0.000000 1.026327 0.837157 13.112165 14.981696 4.720659 4.133851 -106.840005 38.569416 -1.640550 95.595034 -87.772965 -73.362133 0.000000 0.000000 0.000000 -4.361950 2.676117 12.358333 8.377238 -0.898468 8.574928 83.038346 -22.256260 3.040245 -130.786703 75.944505 -136.154179 0.000000 0.000000 0.000000 
-5.675548 31.534374 43.311214 179.433673 3.212501 -179.621817 17.876425 -9.106946 -34.472924 -1.440545 6.571180 -49.764704 11.532604 5.463822 31.814102 3.824770 -10.249757 -7.716849 0.000000 0.000000 0.000000 5.151056 1.267637 -28.678513 15.866015 -3.390411 -58.711357 -1.633862 -2.860326 59.464658 -1.021851 13.440918 -4.886157 0.000000 0.000000 0.000000 3.606774 -1.464090 -33.549975 -3.846329 -0.868230 -5.073872 -1.574507 0.369491 13.313821 0.110493 0.005493 0.054927 -2.507744 0.550983 18.482181 -0.118984 -6.141742 23.154642 0.000000 0.000000 0.000000 1.055693 0.980398 13.113360 14.843265 4.687710 3.652035 -107.203391 38.950472 -1.844371 109.563666 -87.191948 -87.425322 0.000000 0.000000 0.000000 -4.448329 2.781981 12.383577 7.754789 -0.812205 8.131810 82.941501 -22.338917 3.782604 -133.244491 75.664986 -138.856967 0.000000 0.000000 0.000000 
-5.681684 31.500978 43.424187 179.297930 3.585967 -179.521468 18.076388 -9.378685 -34.130592 -0.989358 6.805421 -50.241068 11.483324 5.090398 32.056127 3.521873 -10.117209 -7.142137 0.000000 0.000000 0.000000 5.206228 1.212615 -28.411710 16.089108 -3.120082 -59.096511 -1.659342 -2.993532 59.758356 -1.155507 13.532609 -4.942038 0.000000 0.000000 0.000000 3.516339 -1.581415 -33.489777 -4.019232 -0.829819 -4.737165 -1.618792 0.214336 13.225330 0.086890 -0.017176 0.067025 -2.593181 0.662368 18.461926 -0.531357 -6.247124 22.188156 0.000000 0.000000 0.000000 1.023401 1.065474 13.108795 14.778827 4.722906 3.245224 -107.075025 39.219827 -1.813269 118.515025 -86.931520 -96.553098 0.000000 0.000000 0.000000 -4.451662 2.838665 12.315112 7.089481 -1.044403 7.654020 82.650630 -22.751707 4.758460 -136.467658 74.969604 -142.043770 0.000000 0.000000 0.000000 
-5.652755 31.474033 43.511074 179.215066 3.929891 -179.464860 18.292853 -9.572245 -33.796401 -0.655863 7.015185 -50.775138 11.455370 4.808817 32.320100 3.265216 -10.008695 -6.766649 0.000000 0.000000 0.000000 5.282970 1.187313 -28.114968 16.281458 -2.776534 -59.635632 -1.688522 -3.037085 60.098684 -1.304762 13.643205 -5.087444 0.000000 0.000000 0.000000 3.752328 -1.821066 -33.425081 -4.137126 -0.700301 -4.466068 -1.669360 0.265207 13.223422 0.021092 -0.017341 0.057941 -2.460563 0.672440 18.429667 -0.846293 -6.307708 21.688214 0.000000 0.000000 0.000000 1.107861 1.130695 13.132455 14.477272 4.759275 2.831192 -106.649572 39.498161 -1.663969 126.950540 -86.353795 -105.028707 0.000000 0.000000 0.000000 -4.455167 2.817111 12.282008 6.556980 -1.471527 7.192041 82.148693 -23.066208 5.720949 -139.210648 74.397555 -144.839052 0.000000 0.000000 0.000000 
-5.602870 31.447220 43.573101 179.166736 4.179394 -179.442429 18.487194 -9.694467 -33.455028 -0.485542 7.207515 -51.282573 11.440122 4.668159 32.477563 3.073794 -9.893749 -6.584078 0.000000 0.000000 0.000000 5.376393 1.200500 -27.737914 16.391023 -2.346824 -60.302176 -1.727694 -2.945951 60.463737 -1.442709 13.712137 -5.271966 0.000000 0.000000 0.000000 4.241184 -2.430625 -33.318284 -4.062040 -0.554004 -4.232415 -1.513344 0.364333 13.210251 0.033518 0.154008 0.041674 -2.639688 0.663449 18.536777 -0.898239 -6.534069 21.337574 0.000000 0.000000 0.000000 1.083791 1.047407 13.075478 14.099589 5.092782 2.569022 -105.956021 39.810161 -1.506495 135.224727 -86.013262 -113.250151 0.000000 0.000000 0.000000 -4.413494 2.886344 12.434585 6.005729 -1.972721 6.634215 81.217096 -23.413791 7.022730 -142.302238 73.457223 -147.959383 0.000000 0.000000 0.000000 
-5.561053 31.421658 43.600964 179.210599 4.482380 -179.531249 18.687638 -9.738517 -33.044250 -0.457285 7.418076 -51.595973 11.470760 4.680393 32.607480 2.962883 -9.749609 -6.530504 0.000000 0.000000 0.000000 5.479278 1.030484 -27.418852 16.480020 -2.244280 -61.212961 -2.213324 -2.849532 60.508052 -2.733578 12.529032 -6.665725 0.000000 0.000000 0.000000 4.715661 -2.286816 -33.061445 -3.924727 -0.468630 -4.033214 -1.518790 0.441509 13.292192 0.072102 0.057967 0.048754 -2.572126 0.696938 18.623779 -0.840773 -6.710882 21.289380 0.000000 0.000000 0.000000 1.074498 1.038040 13.196087 13.713156 5.242565 2.169893 -105.105581 39.903051 -1.440677 140.110430 -85.699251 -117.974251 0.000000 0.000000 0.000000 -4.461279 2.864378 12.426941 5.545910 -2.701740 6.198550 80.041962 -23.288753 8.276617 -145.057536 72.894231 -150.752848 0.000000 0.000000 0.000000 
-5.524231 31.416260 43.595131 179.378198 4.741748 -179.769869 18.915997 -9.656748 -32.571956 -0.543391 7.712382 -51.586954 11.543447 4.772140 32.723351 2.934327 -9.575019 -6.529566 0.000000 0.000000 0.000000 5.495155 0.896557 -27.261257 16.386285 -1.912058 -62.199411 -2.386851 -2.335938 60.618366 -3.172511 12.089878 -7.558771 0.000000 0.000000 0.000000 5.276392 -1.690265 -32.609471 -3.728048 -0.444182 -3.827625 -1.640838 0.247455 13.427476 0.126680 -0.020255 0.033897 -2.591994 0.579503 18.789435 -0.618359 -6.938190 21.539806 0.000000 0.000000 0.000000 1.152202 0.834560 13.321994 13.193569 5.541668 1.871140 -103.998537 39.771560 -1.618966 143.065552 -85.816286 -120.654827 0.000000 0.000000 0.000000 -4.736846 2.833940 12.518719 5.375855 -3.507229 5.579630 78.741617 -22.733154 9.488163 -147.154991 72.250472 -152.870193 0.000000 0.000000 0.000000 
